<svg width="25" height="25" viewBox="0 0 25 25" fill="none" xmlns="http://www.w3.org/2000/svg">
<g clip-path="url(#clip0_4_285)">
<path d="M19.8246 6.25546C19.0335 4.13084 18.6301 3.05273 18.2101 3.06388C17.6101 3.07875 17.5132 4.57045 16.219 6.4432C15.5322 7.43766 14.1457 9.47863 12.6825 9.35409C11.2286 9.23048 10.2575 7.01943 9.44238 5.1662C8.27557 2.51275 8.36603 1.02477 7.80663 0.963431C6.97213 0.87142 6.55488 4.16058 4.12709 8.73418C2.09255 12.567 1.13713 12.6098 0.981123 14.4231C0.67188 18.0133 4.07448 21.8007 7.80201 23.3463C12.0409 25.1047 15.955 23.6539 16.9639 23.2385C20.7238 21.691 24.5593 17.8804 23.9814 14.7939C23.783 13.7325 23.182 13.397 22.3891 12.2315C22.0272 11.6999 21.646 10.9294 21.2149 9.99724C20.5973 8.66168 20.5521 8.20999 19.8237 6.2536L19.8246 6.25546ZM9.66024 14.5048C9.61962 16.0346 8.62543 17.7568 7.70785 17.7094C6.79212 17.662 6.10071 15.8608 6.0564 14.4798C6.00748 12.9565 6.71643 11.0503 7.63124 10.9871C8.56912 10.922 9.7064 12.7929 9.66024 14.5058V14.5048ZM13.3047 21.0702C12.7342 21.783 12.5071 21.8685 12.3216 21.8685C12.1859 21.8685 11.9228 21.823 11.3375 21.0702C10.6314 20.1621 10.1079 19.4865 10.3544 19.0125C10.6046 18.5338 11.4926 18.544 12.2874 18.5533C13.0564 18.5617 14.1281 18.5747 14.3626 19.1184C14.538 19.5236 14.1263 20.0385 13.3038 21.0692L13.3047 21.0702ZM18.7843 14.8357C18.6671 16.136 17.8575 17.7215 16.9685 17.7094C16.0593 17.6973 15.3189 16.0179 15.2118 14.7214C15.0715 13.0345 15.919 11.0252 16.8504 10.9871C17.8141 10.9462 18.9486 13.0085 18.7834 14.8366L18.7843 14.8357Z" fill="#141614"/>
</g>
<defs>
<clipPath id="clip0_4_285">
<rect width="25" height="25" fill="white"/>
</clipPath>
</defs>
</svg>
